<?xml version="1.0" encoding="UTF-8" standalone="no"?>
<svg
   xmlns:dc="http://purl.org/dc/elements/1.1/"
   xmlns:cc="http://creativecommons.org/ns#"
   xmlns:rdf="http://www.w3.org/1999/02/22-rdf-syntax-ns#"
   xmlns:svg="http://www.w3.org/2000/svg"
   xmlns="http://www.w3.org/2000/svg"
   xmlns:sodipodi="http://sodipodi.sourceforge.net/DTD/sodipodi-0.dtd"
   xmlns:inkscape="http://www.inkscape.org/namespaces/inkscape"
   version="1.1"
   x="0px"
   y="0px"
   viewBox="0 0 97.421997 97.421997"
   enable-background="new 0 0 100 100"
   xml:space="preserve"
   id="svg3746"
   sodipodi:docname="compass.svg"
   width="97.421997"
   height="97.421997"
   inkscape:version="0.92.1 r15371"><metadata
     id="metadata3752"><rdf:RDF><cc:Work
         rdf:about=""><dc:format>image/svg+xml</dc:format><dc:type
           rdf:resource="http://purl.org/dc/dcmitype/StillImage" /></cc:Work></rdf:RDF></metadata><defs
     id="defs3750" /><sodipodi:namedview
     pagecolor="#ffffff"
     bordercolor="#666666"
     borderopacity="1"
     objecttolerance="10"
     gridtolerance="10"
     guidetolerance="10"
     inkscape:pageopacity="0"
     inkscape:pageshadow="2"
     inkscape:window-width="1855"
     inkscape:window-height="1056"
     id="namedview3748"
     showgrid="false"
     inkscape:zoom="7.312"
     inkscape:cx="72.849403"
     inkscape:cy="36.211"
     inkscape:window-x="65"
     inkscape:window-y="24"
     inkscape:window-maximized="1"
     inkscape:current-layer="svg3746" /><g
     id="g3738"
     transform="matrix(0.9,0,0,0.9,3.711,3.711)"><path
       d="M 50,98.711 C 23.14,98.711 1.289,76.859 1.289,50 1.289,23.141 23.14,1.289 50,1.289 c 26.86,0 48.711,21.852 48.711,48.712 0,26.858 -21.852,48.71 -48.711,48.71 z M 50,7.289 C 26.449,7.289 7.289,26.449 7.289,50 7.289,73.55 26.449,92.71 50,92.71 73.551,92.71 92.711,73.55 92.711,50 92.711,26.449 73.551,7.289 50,7.289 Z"
       id="path3736"
       inkscape:connector-curvature="0"
       style="fill:#000000" /></g><path
     d="m 48.711512,13.668938 c -1.790394,0 -3.239963,1.449569 -3.239963,3.239964 l -7.07e-4,31.802127 -7.07e-4,31.803542 c 0,1.78898 1.45169,3.239256 3.24067,3.239256 0.89449,7.07e-4 1.704834,-0.362746 2.291026,-0.948937 0.586191,-0.586192 0.948937,-1.395829 0.948937,-2.291026 V 48.711029 l 7.07e-4,-31.802127 c 0,-1.790395 -1.45169,-3.240671 -3.239963,-3.239964 z m 2.239407,66.844926 c 0,0.598212 -0.232638,1.160362 -0.655488,1.583212 -0.42285,0.42285 -0.985707,0.656195 -1.583919,0.656195 -0.598212,0 -1.160362,-0.232638 -1.583919,-0.656195 -0.423557,-0.423557 -0.656902,-0.985 -0.656902,-1.583212 l 7.07e-4,-30.803693 h 4.480228 z"
     id="path3740"
     inkscape:connector-curvature="0" /><path
     style="stroke-width:0.13676149"
     d="M 47.892275,83.552709 C 47.040079,83.326247 46.307463,82.721458 45.88065,81.892075 L 45.538133,81.226496 V 48.673616 16.120734 l 0.302997,-0.566541 c 1.209363,-2.261265 4.249474,-2.403694 5.574132,-0.261149 l 0.4139,0.669455 0.03872,32.42321 c 0.02883,24.138624 -0.0015,32.570261 -0.118742,32.998721 -0.436754,1.596289 -2.225379,2.601831 -3.856865,2.168279 z m 2.053638,-1.122825 c 0.530162,-0.395823 0.859343,-0.887822 1.000115,-1.494788 0.07069,-0.304784 0.125829,-7.166201 0.127683,-15.887939 l 0.0033,-15.351477 h -2.326633 -2.326634 l 0.03588,15.840815 0.03588,15.840815 0.36647,0.480439 c 0.201558,0.264242 0.570814,0.584627 0.820569,0.711965 0.59614,0.303947 1.765803,0.231687 2.26341,-0.13983 z"
     id="path3788"
     inkscape:connector-curvature="0" /><path
     style="stroke-width:0.13676149"
     d="M 47.892275,83.552709 C 47.040079,83.326247 46.307463,82.721458 45.88065,81.892075 L 45.538133,81.226496 V 48.673616 16.120734 l 0.302997,-0.566541 c 1.209363,-2.261265 4.249474,-2.403694 5.574132,-0.261149 l 0.4139,0.669455 0.03872,32.42321 c 0.02883,24.138624 -0.0015,32.570261 -0.118742,32.998721 -0.436754,1.596289 -2.225379,2.601831 -3.856865,2.168279 z m 2.062088,-1.12695 c 0.818979,-0.606626 0.934777,-0.951681 1.031903,-3.074863 0.04934,-1.078557 0.08993,-8.19221 0.09021,-15.808116 l 5.01e-4,-13.8471 H 48.750344 46.42371 l 0.03588,15.840815 0.03588,15.840815 0.36647,0.480439 c 0.201558,0.264242 0.570814,0.584627 0.820569,0.711965 0.599135,0.305473 1.764826,0.23161 2.27186,-0.143955 z"
     id="path3790"
     inkscape:connector-curvature="0" /></svg>